# xmcd
# 
# Track frame offsets:
#     150
#     9579
#     24886
#     52684
#     70709
#     86519
#     100494
#     108144
#     121949
#     140098
#     150531
#     165957
#     185110
#     200664
#     218485
#     235366
# 
# Disc length: 3358
# 
# Revision: 1
# Processed by: cddbd v1.5.2PL0 Copyright (c) Steve Scherf et al.
# Submitted via: fre:ac v1.0.17
# 
DISCID=c90d1c10
DTITLE=Jawga Boyz and Dez - Tailgate Music
DYEAR=2014
DGENRE=Country Rap
TTITLE0=Intro
TTITLE1=Born With It
TTITLE2=That's All We Know Featuring Bubba Sparxxx
TTITLE3=Let It Fly By Featuring Young Gunner
TTITLE4=Livin The Dream
TTITLE5=Stay Muddy Stay Dirty
TTITLE6=Blue Collars ( Skit )
TTITLE7=Blue Collars
TTITLE8=Windshield
TTITLE9=Millionare
TTITLE10=We Comin Home Featuring Boondock Kingz
TTITLE11=More For Me
TTITLE12=No Lines
TTITLE13=We Like It
TTITLE14=I Know You're Doin Alright
TTITLE15=Ridin In This Rig ( Rock Remix )
EXTD=
EXTT0=
EXTT1=
EXTT2=
EXTT3=
EXTT4=
EXTT5=
EXTT6=
EXTT7=
EXTT8=
EXTT9=
EXTT10=
EXTT11=
EXTT12=
EXTT13=
EXTT14=
EXTT15=
PLAYORDER=
